<mxfile host="Electron" agent="Mozilla/5.0 (Macintosh; Intel Mac OS X 10_15_7) AppleWebKit/537.36 (KHTML, like Gecko) draw.io/26.0.16 Chrome/132.0.6834.196 Electron/34.2.0 Safari/537.36" version="26.0.16">
  <diagram id="prtHgNgQTEPvFCAcTncT" name="Page-1">
    <mxGraphModel dx="1397" dy="653" grid="1" gridSize="10" guides="1" tooltips="1" connect="1" arrows="1" fold="1" page="1" pageScale="1" pageWidth="827" pageHeight="1169" math="0" shadow="0">
      <root>
        <mxCell id="0" />
        <mxCell id="1" parent="0" />
        <mxCell id="dNxyNK7c78bLwvsdeMH5-21" value="Tutor" style="swimlane;html=1;startSize=20;horizontal=0;rotation=90;" parent="1" vertex="1">
          <mxGeometry x="230" y="145.97" width="527.17" height="379" as="geometry" />
        </mxCell>
        <mxCell id="Y2SSjLSmTqgH7v8KGgeJ-18" value="&lt;font style=&quot;font-size: 9px;&quot;&gt;gets slides&lt;/font&gt;" style="rounded=1;whiteSpace=wrap;html=1;" vertex="1" parent="dNxyNK7c78bLwvsdeMH5-21">
          <mxGeometry x="139.69" y="-42.75000000000001" width="60" height="30" as="geometry" />
        </mxCell>
        <mxCell id="Y2SSjLSmTqgH7v8KGgeJ-25" value="" style="rhombus;whiteSpace=wrap;html=1;" vertex="1" parent="dNxyNK7c78bLwvsdeMH5-21">
          <mxGeometry x="232.69" y="-35.25000000000001" width="10" height="15" as="geometry" />
        </mxCell>
        <mxCell id="Y2SSjLSmTqgH7v8KGgeJ-22" value="" style="endArrow=open;html=1;rounded=0;exitX=1;exitY=0.5;exitDx=0;exitDy=0;endFill=0;" edge="1" parent="dNxyNK7c78bLwvsdeMH5-21" source="Y2SSjLSmTqgH7v8KGgeJ-18" target="Y2SSjLSmTqgH7v8KGgeJ-25">
          <mxGeometry width="50" height="50" relative="1" as="geometry">
            <mxPoint x="203.69000000000005" y="-27.750000000000007" as="sourcePoint" />
            <mxPoint x="280" y="-27.750000000000007" as="targetPoint" />
          </mxGeometry>
        </mxCell>
        <mxCell id="Y2SSjLSmTqgH7v8KGgeJ-27" value="&lt;div style=&quot;&quot;&gt;&lt;span style=&quot;font-size: 6px; background-color: transparent; color: light-dark(rgb(0, 0, 0), rgb(255, 255, 255));&quot;&gt;[the notes are&lt;/span&gt;&lt;/div&gt;&lt;font style=&quot;font-size: 6px;&quot;&gt;&lt;div style=&quot;&quot;&gt;&lt;span style=&quot;background-color: transparent; color: light-dark(rgb(0, 0, 0), rgb(255, 255, 255));&quot;&gt;&amp;nbsp;not enough]&lt;/span&gt;&lt;/div&gt;&lt;/font&gt;" style="text;html=1;align=center;verticalAlign=middle;resizable=0;points=[];autosize=1;strokeColor=none;fillColor=none;" vertex="1" parent="dNxyNK7c78bLwvsdeMH5-21">
          <mxGeometry x="182.69" y="-6.13000000000001" width="60" height="40" as="geometry" />
        </mxCell>
        <mxCell id="Y2SSjLSmTqgH7v8KGgeJ-32" value="&lt;font style=&quot;font-size: 9px;&quot;&gt;plans a new exercise&amp;nbsp;&lt;/font&gt;" style="rounded=1;whiteSpace=wrap;html=1;" vertex="1" parent="dNxyNK7c78bLwvsdeMH5-21">
          <mxGeometry x="199.69" y="39.87" width="74.31" height="33.38" as="geometry" />
        </mxCell>
        <mxCell id="Y2SSjLSmTqgH7v8KGgeJ-26" value="" style="endArrow=open;html=1;rounded=0;entryX=0.5;entryY=0;entryDx=0;entryDy=0;endFill=0;" edge="1" parent="dNxyNK7c78bLwvsdeMH5-21" target="Y2SSjLSmTqgH7v8KGgeJ-32">
          <mxGeometry width="50" height="50" relative="1" as="geometry">
            <mxPoint x="236.69" y="-20.130000000000003" as="sourcePoint" />
            <mxPoint x="199.69000000000003" y="46.89" as="targetPoint" />
          </mxGeometry>
        </mxCell>
        <mxCell id="Y2SSjLSmTqgH7v8KGgeJ-34" value="" style="rounded=0;whiteSpace=wrap;html=1;fillColor=light-dark(#000000,#000000);rotation=-90;" vertex="1" parent="dNxyNK7c78bLwvsdeMH5-21">
          <mxGeometry x="234.69" y="79.87" width="2.5" height="40" as="geometry" />
        </mxCell>
        <mxCell id="Y2SSjLSmTqgH7v8KGgeJ-37" value="&lt;font style=&quot;font-size: 9px;&quot;&gt;new exercise sheet&lt;/font&gt;" style="rounded=1;whiteSpace=wrap;html=1;" vertex="1" parent="dNxyNK7c78bLwvsdeMH5-21">
          <mxGeometry x="273.69" y="139.86999999999998" width="70" height="40" as="geometry" />
        </mxCell>
        <mxCell id="Y2SSjLSmTqgH7v8KGgeJ-36" value="" style="endArrow=open;html=1;rounded=0;exitX=0;exitY=0.75;exitDx=0;exitDy=0;entryX=0.5;entryY=0;entryDx=0;entryDy=0;endFill=0;" edge="1" parent="dNxyNK7c78bLwvsdeMH5-21" source="Y2SSjLSmTqgH7v8KGgeJ-34" target="Y2SSjLSmTqgH7v8KGgeJ-37">
          <mxGeometry width="50" height="50" relative="1" as="geometry">
            <mxPoint x="213.69" y="129.87" as="sourcePoint" />
            <mxPoint x="263.69" y="139.87" as="targetPoint" />
          </mxGeometry>
        </mxCell>
        <mxCell id="Y2SSjLSmTqgH7v8KGgeJ-35" value="" style="endArrow=open;html=1;rounded=0;exitX=0;exitY=0.25;exitDx=0;exitDy=0;entryX=0.5;entryY=0;entryDx=0;entryDy=0;endFill=0;" edge="1" parent="dNxyNK7c78bLwvsdeMH5-21" source="Y2SSjLSmTqgH7v8KGgeJ-34" target="Y2SSjLSmTqgH7v8KGgeJ-38">
          <mxGeometry width="50" height="50" relative="1" as="geometry">
            <mxPoint x="213.69" y="129.87" as="sourcePoint" />
            <mxPoint x="183.69" y="139.87" as="targetPoint" />
          </mxGeometry>
        </mxCell>
        <mxCell id="Y2SSjLSmTqgH7v8KGgeJ-38" value="&lt;font style=&quot;font-size: 9px;&quot;&gt;solutions&lt;/font&gt;" style="rounded=1;whiteSpace=wrap;html=1;" vertex="1" parent="dNxyNK7c78bLwvsdeMH5-21">
          <mxGeometry x="153.69" y="139.87" width="60" height="30" as="geometry" />
        </mxCell>
        <mxCell id="Y2SSjLSmTqgH7v8KGgeJ-49" value="" style="rhombus;whiteSpace=wrap;html=1;" vertex="1" parent="dNxyNK7c78bLwvsdeMH5-21">
          <mxGeometry x="173.69" y="219.32" width="20" height="20" as="geometry" />
        </mxCell>
        <mxCell id="Y2SSjLSmTqgH7v8KGgeJ-48" value="" style="endArrow=open;html=1;rounded=0;exitX=0.5;exitY=1;exitDx=0;exitDy=0;entryX=0.5;entryY=0;entryDx=0;entryDy=0;endFill=0;" edge="1" parent="dNxyNK7c78bLwvsdeMH5-21" source="Y2SSjLSmTqgH7v8KGgeJ-38" target="Y2SSjLSmTqgH7v8KGgeJ-49">
          <mxGeometry width="50" height="50" relative="1" as="geometry">
            <mxPoint x="253.69" y="229.87" as="sourcePoint" />
            <mxPoint x="183.69" y="239.87" as="targetPoint" />
          </mxGeometry>
        </mxCell>
        <mxCell id="Y2SSjLSmTqgH7v8KGgeJ-54" value="&lt;font style=&quot;font-size: 9px;&quot;&gt;corrects sheet&lt;/font&gt;" style="rounded=1;whiteSpace=wrap;html=1;" vertex="1" parent="dNxyNK7c78bLwvsdeMH5-21">
          <mxGeometry x="138.69" y="274" width="90" height="30" as="geometry" />
        </mxCell>
        <mxCell id="Y2SSjLSmTqgH7v8KGgeJ-53" value="" style="endArrow=open;html=1;rounded=0;exitX=0.5;exitY=1;exitDx=0;exitDy=0;endFill=0;" edge="1" parent="dNxyNK7c78bLwvsdeMH5-21" source="Y2SSjLSmTqgH7v8KGgeJ-49" target="Y2SSjLSmTqgH7v8KGgeJ-54">
          <mxGeometry width="50" height="50" relative="1" as="geometry">
            <mxPoint x="253.69" y="229.87" as="sourcePoint" />
            <mxPoint x="183.69" y="319.87" as="targetPoint" />
          </mxGeometry>
        </mxCell>
        <mxCell id="Y2SSjLSmTqgH7v8KGgeJ-55" value="&lt;font style=&quot;font-size: 9px;&quot;&gt;graded exercise sheet&lt;/font&gt;" style="rounded=1;whiteSpace=wrap;html=1;" vertex="1" parent="dNxyNK7c78bLwvsdeMH5-21">
          <mxGeometry x="138.69" y="334" width="90" height="40" as="geometry" />
        </mxCell>
        <mxCell id="Y2SSjLSmTqgH7v8KGgeJ-56" value="" style="endArrow=open;html=1;rounded=0;exitX=0.5;exitY=1;exitDx=0;exitDy=0;entryX=0.5;entryY=0;entryDx=0;entryDy=0;endFill=0;" edge="1" parent="dNxyNK7c78bLwvsdeMH5-21" source="Y2SSjLSmTqgH7v8KGgeJ-54" target="Y2SSjLSmTqgH7v8KGgeJ-55">
          <mxGeometry width="50" height="50" relative="1" as="geometry">
            <mxPoint x="263" y="216.62" as="sourcePoint" />
            <mxPoint x="313" y="166.62" as="targetPoint" />
          </mxGeometry>
        </mxCell>
        <mxCell id="Y2SSjLSmTqgH7v8KGgeJ-33" value="" style="endArrow=open;html=1;rounded=0;exitX=0.5;exitY=1;exitDx=0;exitDy=0;entryX=1;entryY=0.5;entryDx=0;entryDy=0;endFill=0;" edge="1" parent="dNxyNK7c78bLwvsdeMH5-21" source="Y2SSjLSmTqgH7v8KGgeJ-32" target="Y2SSjLSmTqgH7v8KGgeJ-34">
          <mxGeometry width="50" height="50" relative="1" as="geometry">
            <mxPoint x="223" y="176.62" as="sourcePoint" />
            <mxPoint x="226" y="156.62" as="targetPoint" />
          </mxGeometry>
        </mxCell>
        <mxCell id="Y2SSjLSmTqgH7v8KGgeJ-61" value="&lt;font style=&quot;font-size: 9px;&quot;&gt;return sheet via KVV&lt;/font&gt;" style="rounded=1;whiteSpace=wrap;html=1;" vertex="1" parent="dNxyNK7c78bLwvsdeMH5-21">
          <mxGeometry x="280" y="330" width="80" height="43.5" as="geometry" />
        </mxCell>
        <mxCell id="Y2SSjLSmTqgH7v8KGgeJ-60" value="" style="endArrow=classic;html=1;rounded=0;exitX=1;exitY=0.5;exitDx=0;exitDy=0;" edge="1" parent="dNxyNK7c78bLwvsdeMH5-21" source="Y2SSjLSmTqgH7v8KGgeJ-55" target="Y2SSjLSmTqgH7v8KGgeJ-61">
          <mxGeometry width="50" height="50" relative="1" as="geometry">
            <mxPoint x="248" y="234" as="sourcePoint" />
            <mxPoint x="298" y="354" as="targetPoint" />
          </mxGeometry>
        </mxCell>
        <mxCell id="dNxyNK7c78bLwvsdeMH5-22" value="Student" style="swimlane;html=1;startSize=20;horizontal=0;rotation=90;" parent="1" vertex="1">
          <mxGeometry x="510" y="240" width="526.29" height="190.95" as="geometry" />
        </mxCell>
        <mxCell id="Y2SSjLSmTqgH7v8KGgeJ-42" value="&lt;font style=&quot;font-size: 9px;&quot;&gt;recived the sheet&lt;/font&gt;" style="rounded=1;whiteSpace=wrap;html=1;" vertex="1" parent="dNxyNK7c78bLwvsdeMH5-22">
          <mxGeometry x="198.72" y="-65.56000000000002" width="80" height="30" as="geometry" />
        </mxCell>
        <mxCell id="Y2SSjLSmTqgH7v8KGgeJ-44" value="&lt;font style=&quot;font-size: 9px;&quot;&gt;works on sheet&lt;/font&gt;" style="rounded=1;whiteSpace=wrap;html=1;" vertex="1" parent="dNxyNK7c78bLwvsdeMH5-22">
          <mxGeometry x="198.72" y="-1.4210854715202004e-14" width="80" height="40" as="geometry" />
        </mxCell>
        <mxCell id="Y2SSjLSmTqgH7v8KGgeJ-43" value="" style="endArrow=open;html=1;rounded=0;exitX=0.5;exitY=1;exitDx=0;exitDy=0;endFill=0;" edge="1" parent="dNxyNK7c78bLwvsdeMH5-22" source="Y2SSjLSmTqgH7v8KGgeJ-42" target="Y2SSjLSmTqgH7v8KGgeJ-44">
          <mxGeometry width="50" height="50" relative="1" as="geometry">
            <mxPoint x="213.13" y="45.389999999999986" as="sourcePoint" />
            <mxPoint x="173.13" y="-44.610000000000014" as="targetPoint" />
          </mxGeometry>
        </mxCell>
        <mxCell id="Y2SSjLSmTqgH7v8KGgeJ-46" value="&lt;font style=&quot;font-size: 9px;&quot;&gt;completed exercise sheet&lt;/font&gt;" style="rounded=0;whiteSpace=wrap;html=1;" vertex="1" parent="dNxyNK7c78bLwvsdeMH5-22">
          <mxGeometry x="193.72" y="123.46" width="90" height="40" as="geometry" />
        </mxCell>
        <mxCell id="Y2SSjLSmTqgH7v8KGgeJ-45" value="" style="endArrow=open;html=1;rounded=0;exitX=0.5;exitY=1;exitDx=0;exitDy=0;endFill=0;" edge="1" parent="dNxyNK7c78bLwvsdeMH5-22" source="Y2SSjLSmTqgH7v8KGgeJ-74" target="Y2SSjLSmTqgH7v8KGgeJ-46">
          <mxGeometry width="50" height="50" relative="1" as="geometry">
            <mxPoint x="213.13" y="55.389999999999986" as="sourcePoint" />
            <mxPoint x="173.13" y="25.389999999999986" as="targetPoint" />
          </mxGeometry>
        </mxCell>
        <mxCell id="Y2SSjLSmTqgH7v8KGgeJ-74" value="&lt;font style=&quot;font-size: 9px;&quot;&gt;finishes sheet&lt;/font&gt;" style="rounded=1;whiteSpace=wrap;html=1;" vertex="1" parent="dNxyNK7c78bLwvsdeMH5-22">
          <mxGeometry x="198.72000000000003" y="64.00999999999999" width="80" height="30" as="geometry" />
        </mxCell>
        <mxCell id="Y2SSjLSmTqgH7v8KGgeJ-75" value="" style="endArrow=open;html=1;rounded=0;exitX=0.5;exitY=1;exitDx=0;exitDy=0;endFill=0;" edge="1" parent="dNxyNK7c78bLwvsdeMH5-22" source="Y2SSjLSmTqgH7v8KGgeJ-44" target="Y2SSjLSmTqgH7v8KGgeJ-74">
          <mxGeometry width="50" height="50" relative="1" as="geometry">
            <mxPoint x="749" y="280" as="sourcePoint" />
            <mxPoint x="749" y="353" as="targetPoint" />
          </mxGeometry>
        </mxCell>
        <mxCell id="dNxyNK7c78bLwvsdeMH5-20" value="Professor" style="swimlane;html=1;startSize=20;horizontal=0;rotation=90;" parent="1" vertex="1">
          <mxGeometry x="-145" y="155" width="530" height="360" as="geometry" />
        </mxCell>
        <mxCell id="Y2SSjLSmTqgH7v8KGgeJ-66" style="edgeStyle=orthogonalEdgeStyle;rounded=0;orthogonalLoop=1;jettySize=auto;html=1;exitX=0.5;exitY=0;exitDx=0;exitDy=0;entryX=0;entryY=0.5;entryDx=0;entryDy=0;endArrow=open;endFill=0;" edge="1" parent="dNxyNK7c78bLwvsdeMH5-20" source="dNxyNK7c78bLwvsdeMH5-23" target="Y2SSjLSmTqgH7v8KGgeJ-1">
          <mxGeometry relative="1" as="geometry" />
        </mxCell>
        <mxCell id="dNxyNK7c78bLwvsdeMH5-23" value="" style="ellipse;whiteSpace=wrap;html=1;rotation=90;fillColor=light-dark(#000000,#000000);" parent="dNxyNK7c78bLwvsdeMH5-20" vertex="1">
          <mxGeometry x="160" y="-22.39" width="15" height="15" as="geometry" />
        </mxCell>
        <mxCell id="Y2SSjLSmTqgH7v8KGgeJ-1" value="&lt;font style=&quot;font-size: 9px;&quot;&gt;prende in carico una lezione&lt;/font&gt;" style="rounded=1;whiteSpace=wrap;html=1;" vertex="1" parent="dNxyNK7c78bLwvsdeMH5-20">
          <mxGeometry x="237.25" y="-29.89" width="82.5" height="30" as="geometry" />
        </mxCell>
        <mxCell id="Y2SSjLSmTqgH7v8KGgeJ-9" value="&lt;font style=&quot;font-size: 9px;&quot;&gt;prepares slides&lt;/font&gt;" style="rounded=1;whiteSpace=wrap;html=1;" vertex="1" parent="dNxyNK7c78bLwvsdeMH5-20">
          <mxGeometry x="195" y="171.61" width="62.5" height="32.5" as="geometry" />
        </mxCell>
        <mxCell id="Y2SSjLSmTqgH7v8KGgeJ-10" value="&lt;font style=&quot;font-size: 9px;&quot;&gt;pianifica una lezione&lt;/font&gt;" style="rounded=1;whiteSpace=wrap;html=1;" vertex="1" parent="dNxyNK7c78bLwvsdeMH5-20">
          <mxGeometry x="190" y="99.03" width="72.5" height="32.5" as="geometry" />
        </mxCell>
        <mxCell id="Y2SSjLSmTqgH7v8KGgeJ-12" value="&lt;font style=&quot;font-size: 9px;&quot;&gt;&amp;lt;&amp;lt;Completed&amp;gt;&amp;gt;&lt;br&gt;Lecture&lt;/font&gt;" style="rounded=0;whiteSpace=wrap;html=1;" vertex="1" parent="dNxyNK7c78bLwvsdeMH5-20">
          <mxGeometry x="181.25" y="379.03000000000003" width="92.5" height="32.58" as="geometry" />
        </mxCell>
        <mxCell id="Y2SSjLSmTqgH7v8KGgeJ-14" value="" style="rounded=0;whiteSpace=wrap;html=1;fillColor=light-dark(#000000,#000000);" vertex="1" parent="dNxyNK7c78bLwvsdeMH5-20">
          <mxGeometry x="300" y="244.03000000000003" width="2.5" height="40" as="geometry" />
        </mxCell>
        <mxCell id="Y2SSjLSmTqgH7v8KGgeJ-17" value="&lt;font style=&quot;font-size: 9px;&quot;&gt;put the slides on server web&lt;/font&gt;" style="rounded=1;whiteSpace=wrap;html=1;" vertex="1" parent="dNxyNK7c78bLwvsdeMH5-20">
          <mxGeometry x="345" y="284.03" width="80" height="30" as="geometry" />
        </mxCell>
        <mxCell id="Y2SSjLSmTqgH7v8KGgeJ-62" value="&lt;font style=&quot;font-size: 9px;&quot;&gt;&amp;lt;&amp;lt;In Progress&amp;gt;&amp;gt;&lt;br&gt;Lecture&lt;/font&gt;" style="rounded=0;whiteSpace=wrap;html=1;" vertex="1" parent="dNxyNK7c78bLwvsdeMH5-20">
          <mxGeometry x="243.5" y="29.03000000000003" width="70" height="30" as="geometry" />
        </mxCell>
        <mxCell id="Y2SSjLSmTqgH7v8KGgeJ-63" value="" style="endArrow=open;html=1;rounded=0;exitX=0.5;exitY=1;exitDx=0;exitDy=0;entryX=0.5;entryY=0;entryDx=0;entryDy=0;endFill=0;" edge="1" parent="dNxyNK7c78bLwvsdeMH5-20" source="Y2SSjLSmTqgH7v8KGgeJ-1" target="Y2SSjLSmTqgH7v8KGgeJ-62">
          <mxGeometry width="50" height="50" relative="1" as="geometry">
            <mxPoint x="367.25" y="189.03000000000003" as="sourcePoint" />
            <mxPoint x="287.25" y="39.030000000000015" as="targetPoint" />
          </mxGeometry>
        </mxCell>
        <mxCell id="Y2SSjLSmTqgH7v8KGgeJ-64" value="" style="endArrow=open;html=1;rounded=0;exitX=0.5;exitY=1;exitDx=0;exitDy=0;entryX=0.5;entryY=0;entryDx=0;entryDy=0;endFill=0;" edge="1" parent="dNxyNK7c78bLwvsdeMH5-20" source="Y2SSjLSmTqgH7v8KGgeJ-62" target="Y2SSjLSmTqgH7v8KGgeJ-10">
          <mxGeometry width="50" height="50" relative="1" as="geometry">
            <mxPoint x="367.25" y="189.03000000000003" as="sourcePoint" />
            <mxPoint x="417.25" y="139.03000000000003" as="targetPoint" />
          </mxGeometry>
        </mxCell>
        <mxCell id="Y2SSjLSmTqgH7v8KGgeJ-15" value="" style="endArrow=open;html=1;rounded=0;exitX=1;exitY=0.75;exitDx=0;exitDy=0;entryX=0;entryY=0.5;entryDx=0;entryDy=0;endFill=0;" edge="1" parent="dNxyNK7c78bLwvsdeMH5-20" source="Y2SSjLSmTqgH7v8KGgeJ-14" target="Y2SSjLSmTqgH7v8KGgeJ-17">
          <mxGeometry width="50" height="50" relative="1" as="geometry">
            <mxPoint x="307.25" y="109.03000000000002" as="sourcePoint" />
            <mxPoint x="340" y="316.6100000000001" as="targetPoint" />
          </mxGeometry>
        </mxCell>
        <mxCell id="Y2SSjLSmTqgH7v8KGgeJ-65" value="" style="endArrow=open;html=1;rounded=0;exitX=0.5;exitY=1;exitDx=0;exitDy=0;entryX=0.5;entryY=0;entryDx=0;entryDy=0;endFill=0;" edge="1" parent="dNxyNK7c78bLwvsdeMH5-20" source="Y2SSjLSmTqgH7v8KGgeJ-10" target="Y2SSjLSmTqgH7v8KGgeJ-9">
          <mxGeometry width="50" height="50" relative="1" as="geometry">
            <mxPoint x="367.25" y="189.03000000000003" as="sourcePoint" />
            <mxPoint x="417.25" y="139.03000000000003" as="targetPoint" />
          </mxGeometry>
        </mxCell>
        <mxCell id="Y2SSjLSmTqgH7v8KGgeJ-68" value="&lt;font style=&quot;font-size: 9px;&quot;&gt;&amp;lt;&amp;lt;Prepared&amp;gt;&amp;gt;&lt;br&gt;Lecture&lt;/font&gt;" style="rounded=0;whiteSpace=wrap;html=1;" vertex="1" parent="dNxyNK7c78bLwvsdeMH5-20">
          <mxGeometry x="192.5" y="249.03000000000003" width="70" height="30" as="geometry" />
        </mxCell>
        <mxCell id="Y2SSjLSmTqgH7v8KGgeJ-67" value="" style="endArrow=open;html=1;rounded=0;exitX=0.5;exitY=1;exitDx=0;exitDy=0;entryX=0.5;entryY=0;entryDx=0;entryDy=0;endFill=0;" edge="1" parent="dNxyNK7c78bLwvsdeMH5-20" source="Y2SSjLSmTqgH7v8KGgeJ-9" target="Y2SSjLSmTqgH7v8KGgeJ-68">
          <mxGeometry width="50" height="50" relative="1" as="geometry">
            <mxPoint x="367.25" y="189.03000000000003" as="sourcePoint" />
            <mxPoint x="226.25" y="239.03000000000003" as="targetPoint" />
          </mxGeometry>
        </mxCell>
        <mxCell id="Y2SSjLSmTqgH7v8KGgeJ-69" value="&lt;font style=&quot;font-size: 9px;&quot;&gt;give lecture&lt;/font&gt;" style="rounded=1;whiteSpace=wrap;html=1;" vertex="1" parent="dNxyNK7c78bLwvsdeMH5-20">
          <mxGeometry x="190.5" y="321.61" width="74" height="27.42" as="geometry" />
        </mxCell>
        <mxCell id="Y2SSjLSmTqgH7v8KGgeJ-70" value="" style="endArrow=open;html=1;rounded=0;exitX=0.5;exitY=1;exitDx=0;exitDy=0;entryX=0.5;entryY=0;entryDx=0;entryDy=0;endFill=0;" edge="1" parent="dNxyNK7c78bLwvsdeMH5-20" source="Y2SSjLSmTqgH7v8KGgeJ-68" target="Y2SSjLSmTqgH7v8KGgeJ-69">
          <mxGeometry width="50" height="50" relative="1" as="geometry">
            <mxPoint x="367.25" y="189.03000000000003" as="sourcePoint" />
            <mxPoint x="417.25" y="139.03000000000003" as="targetPoint" />
          </mxGeometry>
        </mxCell>
        <mxCell id="Y2SSjLSmTqgH7v8KGgeJ-71" value="" style="endArrow=open;html=1;rounded=0;exitX=0.5;exitY=1;exitDx=0;exitDy=0;entryX=0.5;entryY=0;entryDx=0;entryDy=0;endFill=0;" edge="1" parent="dNxyNK7c78bLwvsdeMH5-20" source="Y2SSjLSmTqgH7v8KGgeJ-69" target="Y2SSjLSmTqgH7v8KGgeJ-12">
          <mxGeometry width="50" height="50" relative="1" as="geometry">
            <mxPoint x="367.25" y="189.03000000000003" as="sourcePoint" />
            <mxPoint x="417.25" y="139.03000000000003" as="targetPoint" />
          </mxGeometry>
        </mxCell>
        <mxCell id="Y2SSjLSmTqgH7v8KGgeJ-72" value="" style="endArrow=open;html=1;rounded=0;exitX=1;exitY=0.5;exitDx=0;exitDy=0;entryX=0;entryY=0.5;entryDx=0;entryDy=0;endFill=0;" edge="1" parent="dNxyNK7c78bLwvsdeMH5-20" source="Y2SSjLSmTqgH7v8KGgeJ-68" target="Y2SSjLSmTqgH7v8KGgeJ-14">
          <mxGeometry width="50" height="50" relative="1" as="geometry">
            <mxPoint x="360" y="161.61" as="sourcePoint" />
            <mxPoint x="410" y="111.61000000000003" as="targetPoint" />
          </mxGeometry>
        </mxCell>
        <mxCell id="Y2SSjLSmTqgH7v8KGgeJ-16" value="" style="endArrow=open;html=1;rounded=0;exitX=1;exitY=0.25;exitDx=0;exitDy=0;entryX=0;entryY=0.5;entryDx=0;entryDy=0;endFill=0;" edge="1" parent="1" source="Y2SSjLSmTqgH7v8KGgeJ-14" target="Y2SSjLSmTqgH7v8KGgeJ-18">
          <mxGeometry width="50" height="50" relative="1" as="geometry">
            <mxPoint x="150" y="260" as="sourcePoint" />
            <mxPoint x="320" y="160" as="targetPoint" />
          </mxGeometry>
        </mxCell>
        <mxCell id="Y2SSjLSmTqgH7v8KGgeJ-41" value="" style="endArrow=open;html=1;rounded=0;exitX=1;exitY=0.5;exitDx=0;exitDy=0;entryX=0;entryY=0.5;entryDx=0;entryDy=0;endFill=0;" edge="1" parent="1" source="Y2SSjLSmTqgH7v8KGgeJ-37" target="Y2SSjLSmTqgH7v8KGgeJ-42">
          <mxGeometry width="50" height="50" relative="1" as="geometry">
            <mxPoint x="540" y="310" as="sourcePoint" />
            <mxPoint x="610" y="160" as="targetPoint" />
          </mxGeometry>
        </mxCell>
        <mxCell id="Y2SSjLSmTqgH7v8KGgeJ-47" value="" style="endArrow=open;html=1;rounded=0;exitX=0.021;exitY=0.47;exitDx=0;exitDy=0;exitPerimeter=0;entryX=1;entryY=0.5;entryDx=0;entryDy=0;endFill=0;" edge="1" parent="1" source="Y2SSjLSmTqgH7v8KGgeJ-46" target="Y2SSjLSmTqgH7v8KGgeJ-49">
          <mxGeometry width="50" height="50" relative="1" as="geometry">
            <mxPoint x="470" y="400" as="sourcePoint" />
            <mxPoint x="470" y="425" as="targetPoint" />
          </mxGeometry>
        </mxCell>
      </root>
    </mxGraphModel>
  </diagram>
</mxfile>
